<svg width="131" height="50" viewBox="0 0 131 50" fill="none" xmlns="http://www.w3.org/2000/svg">
<path d="M1.64 8H8.12C10.3067 8 11.9467 8.58667 13.04 9.76C14.1333 10.9333 14.68 12.6533 14.68 14.92V17.68C14.68 19.9467 14.1333 21.6667 13.04 22.84C11.9467 24.0133 10.3067 24.6 8.12 24.6H6.04V36H1.64V8ZM8.12 20.6C8.84 20.6 9.37333 20.4 9.72 20C10.0933 19.6 10.28 18.92 10.28 17.96V14.64C10.28 13.68 10.0933 13 9.72 12.6C9.37333 12.2 8.84 12 8.12 12H6.04V20.6H8.12ZM17.0697 8H23.5897C25.8564 8 27.5097 8.53333 28.5497 9.6C29.5897 10.64 30.1097 12.2533 30.1097 14.44V16.16C30.1097 19.0667 29.1497 20.9067 27.2297 21.68V21.76C28.2964 22.08 29.043 22.7333 29.4697 23.72C29.923 24.7067 30.1497 26.0267 30.1497 27.68V32.6C30.1497 33.4 30.1764 34.0533 30.2297 34.56C30.283 35.04 30.4164 35.52 30.6297 36H26.1497C25.9897 35.5467 25.883 35.12 25.8297 34.72C25.7764 34.32 25.7497 33.6 25.7497 32.56V27.44C25.7497 26.16 25.5364 25.2667 25.1097 24.76C24.7097 24.2533 24.003 24 22.9897 24H21.4697V36H17.0697V8ZM23.0697 20C23.9497 20 24.603 19.7733 25.0297 19.32C25.483 18.8667 25.7097 18.1067 25.7097 17.04V14.88C25.7097 13.8667 25.523 13.1333 25.1497 12.68C24.803 12.2267 24.243 12 23.4697 12H21.4697V20H23.0697ZM33.2025 8H45.2025V12H37.6025V19.4H43.6425V23.4H37.6025V32H45.2025V36H33.2025V8ZM46.5738 8H51.0138L53.8938 29.72H53.9738L56.8538 8H60.8938L56.6537 36H50.8138L46.5738 8ZM63.0072 8H67.4072V36H63.0072V8ZM76.4225 36.4C74.2892 36.4 72.6758 35.8 71.5825 34.6C70.4892 33.3733 69.9425 31.6267 69.9425 29.36V27.76H74.1025V29.68C74.1025 31.4933 74.8625 32.4 76.3825 32.4C77.1292 32.4 77.6892 32.1867 78.0625 31.76C78.4625 31.3067 78.6625 30.5867 78.6625 29.6C78.6625 28.4267 78.3958 27.4 77.8625 26.52C77.3292 25.6133 76.3425 24.5333 74.9025 23.28C73.0892 21.68 71.8225 20.24 71.1025 18.96C70.3825 17.6533 70.0225 16.1867 70.0225 14.56C70.0225 12.3467 70.5825 10.64 71.7025 9.44C72.8225 8.21333 74.4492 7.6 76.5825 7.6C78.6892 7.6 80.2758 8.21333 81.3425 9.44C82.4358 10.64 82.9825 12.3733 82.9825 14.64V15.8H78.8225V14.36C78.8225 13.4 78.6358 12.7067 78.2625 12.28C77.8892 11.8267 77.3425 11.6 76.6225 11.6C75.1558 11.6 74.4225 12.4933 74.4225 14.28C74.4225 15.2933 74.6892 16.24 75.2225 17.12C75.7825 18 76.7825 19.0667 78.2225 20.32C80.0625 21.92 81.3292 23.3733 82.0225 24.68C82.7158 25.9867 83.0625 27.52 83.0625 29.28C83.0625 31.5733 82.4892 33.3333 81.3425 34.56C80.2225 35.7867 78.5825 36.4 76.4225 36.4ZM88.8681 8H94.8281L99.3881 36H94.9881L94.1881 30.44V30.52H89.1881L88.3881 36H84.3081L88.8681 8ZM93.6681 26.72L91.7081 12.88H91.6281L89.7081 26.72H93.6681ZM86.3081 5C86.8148 3.85333 87.3615 3.01333 87.9481 2.48C88.5348 1.92 89.2015 1.64 89.9481 1.64C90.4281 1.64 90.8415 1.70667 91.1881 1.84C91.5615 1.97333 91.9481 2.16 92.3481 2.4C92.5881 2.53333 92.8148 2.65333 93.0281 2.76C93.2681 2.86667 93.4948 2.92 93.7081 2.92C94.0281 2.92 94.3081 2.8 94.5481 2.56C94.7881 2.32 95.0415 1.92 95.3081 1.36L97.4281 2.64C96.9215 3.78667 96.3748 4.64 95.7881 5.2C95.2015 5.73333 94.5348 6 93.7881 6C93.3081 6 92.8815 5.93333 92.5081 5.8C92.1615 5.66666 91.7881 5.48 91.3881 5.24C91.1481 5.10666 90.9081 4.98666 90.6681 4.88C90.4548 4.77333 90.2415 4.72 90.0281 4.72C89.7081 4.72 89.4281 4.84 89.1881 5.08C88.9481 5.32 88.6948 5.72 88.4281 6.28L86.3081 5ZM107.805 36.4C105.645 36.4 103.991 35.7867 102.845 34.56C101.698 33.3333 101.125 31.6 101.125 29.36V14.64C101.125 12.4 101.698 10.6667 102.845 9.44C103.991 8.21333 105.645 7.6 107.805 7.6C109.965 7.6 111.618 8.21333 112.765 9.44C113.911 10.6667 114.485 12.4 114.485 14.64V29.36C114.485 31.6 113.911 33.3333 112.765 34.56C111.618 35.7867 109.965 36.4 107.805 36.4ZM107.805 32.4C109.325 32.4 110.085 31.48 110.085 29.64V14.36C110.085 12.52 109.325 11.6 107.805 11.6C106.285 11.6 105.525 12.52 105.525 14.36V29.64C105.525 31.48 106.285 32.4 107.805 32.4Z" fill="#775ADA"/>
<path d="M114.616 39.648C113.784 39.648 113.144 39.456 112.696 39.072C112.264 38.688 112.048 38.256 112.048 37.776C112.048 37.36 112.2 37 112.504 36.696C112.808 36.392 113.256 36.24 113.848 36.24C114.056 36.24 114.296 36.264 114.568 36.312C114.856 36.344 115.072 36.368 115.216 36.384C115.2 35.968 115.104 35.576 114.928 35.208C114.768 34.84 114.56 34.488 114.304 34.152C114.048 33.8 113.808 33.496 113.584 33.24C113.088 34.184 112.592 34.968 112.096 35.592C111.616 36.216 111.088 36.808 110.512 37.368C110.224 37.656 109.92 37.8 109.6 37.8C109.344 37.8 109.136 37.712 108.976 37.536C108.816 37.344 108.736 37.112 108.736 36.84C108.736 36.52 108.848 36.224 109.072 35.952L109.384 35.568C110.264 34.48 110.928 33.584 111.376 32.88C111.648 32.416 111.968 31.8 112.336 31.032C112.704 30.248 113.064 29.44 113.416 28.608C113.72 27.904 114.352 27.552 115.312 27.552C115.76 27.552 116.072 27.592 116.248 27.672C116.424 27.752 116.512 27.88 116.512 28.056C116.512 28.152 116.48 28.304 116.416 28.512C116.352 28.72 116.264 28.928 116.152 29.136C115.864 29.712 115.72 30.2 115.72 30.6C115.72 30.84 115.8 31.104 115.96 31.392C116.136 31.68 116.4 32.04 116.752 32.472C117.264 33.144 117.648 33.72 117.904 34.2C118.176 34.664 118.312 35.176 118.312 35.736C118.312 35.896 118.296 36.12 118.264 36.408C119.048 36.104 119.968 35.296 121.024 33.984C121.216 33.76 121.432 33.648 121.672 33.648C121.88 33.648 122.04 33.744 122.152 33.936C122.28 34.128 122.344 34.392 122.344 34.728C122.344 35.336 122.192 35.832 121.888 36.216C121.088 37.208 120.32 37.888 119.584 38.256C118.864 38.608 117.968 38.8 116.896 38.832C116.256 39.376 115.496 39.648 114.616 39.648ZM129.898 31.68C129.898 32.944 129.602 34.144 129.01 35.28C128.434 36.4 127.658 37.312 126.682 38.016C125.722 38.72 124.69 39.088 123.586 39.12C123.378 42.208 122.906 44.784 122.17 46.848C121.434 48.928 120.354 49.968 118.93 49.968C118.066 49.968 117.426 49.656 117.01 49.032C116.594 48.408 116.386 47.544 116.386 46.44C116.386 44.872 116.746 43.04 117.466 40.944C118.186 38.864 119.298 36.568 120.802 34.056C120.802 31.72 120.786 30.096 120.754 29.184C120.738 28.72 120.922 28.352 121.306 28.08C121.69 27.808 122.17 27.672 122.746 27.672C123.082 27.672 123.322 27.744 123.466 27.888C123.626 28.016 123.714 28.28 123.73 28.68C123.73 29.08 123.738 29.376 123.754 29.568C124.266 28.928 124.77 28.472 125.266 28.2C125.762 27.912 126.29 27.768 126.85 27.768C127.746 27.768 128.474 28.128 129.034 28.848C129.61 29.568 129.898 30.512 129.898 31.68ZM123.706 36.816C124.282 36.688 124.81 36.376 125.29 35.88C125.786 35.368 126.178 34.744 126.466 34.008C126.754 33.256 126.898 32.472 126.898 31.656C126.898 31.176 126.802 30.816 126.61 30.576C126.418 30.32 126.162 30.192 125.842 30.192C125.266 30.192 124.57 30.8 123.754 32.016C123.738 32.72 123.73 33.752 123.73 35.112C123.73 35.848 123.722 36.416 123.706 36.816ZM119.122 47.616C119.554 47.616 119.914 46.672 120.202 44.784C120.49 42.912 120.674 40.576 120.754 37.776C120.066 39.376 119.522 40.904 119.122 42.36C118.722 43.816 118.522 45.04 118.522 46.032C118.522 46.544 118.586 46.936 118.714 47.208C118.826 47.48 118.962 47.616 119.122 47.616Z" fill="#28C7FA"/>
</svg>
